<svg width="28" height="32" viewBox="0 0 28 32" fill="none" xmlns="http://www.w3.org/2000/svg">
<path d="M26.1949 10.9099C26.0092 11.0539 22.7321 12.9005 22.7321 17.0065C22.7321 21.7558 26.9021 23.4359 27.027 23.4775C27.0077 23.58 26.3645 25.7786 24.8283 28.0188C23.4586 29.9902 22.0281 31.9584 19.8518 31.9584C17.6756 31.9584 17.1156 30.6943 14.6033 30.6943C12.1551 30.6943 11.2846 32 9.29398 32C7.30338 32 5.91444 30.1758 4.31748 27.9356C2.46769 25.3049 0.973145 21.2181 0.973145 17.3393C0.973145 11.1179 5.01835 7.81838 8.99955 7.81838C11.115 7.81838 12.8783 9.20732 14.2065 9.20732C15.4706 9.20732 17.442 7.73517 19.8486 7.73517C20.7607 7.73517 24.0379 7.81838 26.1949 10.9099ZM18.7061 5.10131C19.7014 3.92039 20.4055 2.28183 20.4055 0.643264C20.4055 0.416042 20.3863 0.185619 20.3447 0C18.7253 0.0608061 16.7987 1.07851 15.637 2.42584C14.7249 3.46275 13.8736 5.10131 13.8736 6.76228C13.8736 7.0119 13.9152 7.26153 13.9344 7.34153C14.0369 7.36074 14.2033 7.38314 14.3697 7.38314C15.8226 7.38314 17.65 6.41024 18.7061 5.10131Z" fill="white"/>
</svg>
