<svg width="30" height="32" viewBox="0 0 30 32" fill="none" xmlns="http://www.w3.org/2000/svg">
<path d="M14.0432 15.284L0.619629 29.3477C0.770357 29.8819 1.04124 30.3746 1.41156 30.7881C1.78189 31.2016 2.24185 31.5249 2.7563 31.7334C3.27074 31.9419 3.82604 32.03 4.37975 31.991C4.93346 31.9519 5.47091 31.7868 5.95103 31.5083L21.055 22.906L14.0432 15.284Z" fill="#5B5858"/>
<path d="M27.6166 12.8934L21.0848 9.1524L13.7329 15.6041L21.1149 22.886L27.5966 19.185C28.1708 18.8844 28.6518 18.4323 28.9874 17.8778C29.323 17.3232 29.5004 16.6874 29.5004 16.0392C29.5004 15.391 29.323 14.7552 28.9874 14.2007C28.6518 13.6461 28.1708 13.194 27.5966 12.8934H27.6166Z" fill="#1B1B1B"/>
<path d="M0.619583 2.66071C0.53844 2.96067 0.498067 3.2702 0.499551 3.58095V28.4275C0.500363 28.7381 0.540697 29.0473 0.619583 29.3477L14.5032 15.6441L0.619583 2.66071Z" fill="black"/>
<path d="M14.1432 16.0042L21.085 9.15241L6.00104 0.510141C5.43358 0.177794 4.78817 0.00177431 4.13055 7.15402e-06C3.33632 -0.00156677 2.56336 0.256602 1.9295 0.73516C1.29564 1.21372 0.83564 1.88641 0.619629 2.6507L14.1432 16.0042Z" fill="#1C1C1C"/>
</svg>
