<svg width="151" height="41" viewBox="0 0 151 41" fill="none" xmlns="http://www.w3.org/2000/svg">
<path d="M150.364 16.914C150.364 17.4086 150.291 18.1322 150.144 19.0848C149.998 20.0191 149.824 20.7702 149.622 21.3381C147.918 23.683 145.876 25.6614 143.494 27.2735C141.15 27.3834 139.428 27.6216 138.328 27.988C137.248 28.3544 136.707 28.7666 136.707 29.2245C136.707 29.5176 136.808 29.7375 137.009 29.884C137.779 29.4627 138.841 29.1329 140.197 28.8948C141.553 28.6383 142.853 28.5101 144.099 28.5101H149.402C149.879 29.3344 150.263 30.2596 150.556 31.2854C150.85 32.293 150.996 33.1815 150.996 33.9509C150.996 36.0759 150.419 37.6514 149.265 38.6772C148.349 39.5016 147.094 39.9138 145.5 39.9138H125.908C124.278 38.2101 123.462 35.5538 123.462 31.9449C123.462 30.6259 123.7 29.0597 124.177 27.2461C125.844 25.3958 128.207 23.2983 131.266 20.9534C131.871 20.4771 132.549 19.9184 133.3 19.2772C133.19 18.8559 132.943 18.6452 132.558 18.6452C132.485 18.6452 132.356 18.6635 132.173 18.7001C131.642 18.865 130.534 19.7352 128.848 21.3106H125.441C124.36 19.5337 123.82 17.6285 123.82 15.595C123.82 14.3127 124.021 13.1769 124.424 12.1877C124.827 11.1984 125.322 10.429 125.908 9.87944H148.578C149.769 11.6198 150.364 13.9646 150.364 16.914Z" fill="white"/>
<path d="M107.47 24.3425V29.1512C107.598 29.2795 107.809 29.3436 108.102 29.3436C108.395 29.3436 108.605 29.2428 108.734 29.0413C108.862 28.8398 108.926 28.4918 108.926 27.9971V24.0677C108.926 22.309 108.853 21.1458 108.706 20.5779C108.56 19.9916 108.285 19.6985 107.882 19.6985C107.625 19.6985 107.406 19.7901 107.222 19.9733C107.387 21.7869 107.47 23.2433 107.47 24.3425ZM97.1926 36.5156C94.1883 33.6211 92.6861 29.7008 92.6861 24.7546C92.6861 19.7901 94.0967 15.879 96.9178 13.0212C99.7573 10.1451 103.476 8.70701 108.074 8.70701C112.672 8.70701 116.391 10.2 119.231 13.1861C122.052 16.1721 123.462 20.0649 123.462 24.8646C123.462 29.6459 122.098 33.4471 119.368 36.2683C116.657 39.0894 112.965 40.5 108.294 40.5C103.623 40.5 99.9222 39.1719 97.1926 36.5156Z" fill="white"/>
<path d="M90.6801 6.49038V25.808C90.6801 28.5376 91.3396 30.3145 92.6586 31.1389C92.6769 31.2305 92.6861 31.4045 92.6861 31.661V32.1556C92.6861 34.7752 92.0174 36.7629 90.6801 38.1185C89.3611 39.4741 87.4834 40.1519 85.047 40.1519C82.6105 40.1519 80.6778 39.4741 79.2489 38.1185C77.5452 36.5064 76.6934 34.07 76.6934 30.8091V2.25864C78.6169 1.08621 80.8152 0.5 83.2883 0.5C85.7797 0.5 87.63 1.03126 88.839 2.09377C90.0664 3.13797 90.6801 4.6035 90.6801 6.49038Z" fill="white"/>
<path d="M74.6874 6.49038V25.808C74.6874 28.5376 75.3469 30.3145 76.6659 31.1389C76.6842 31.2305 76.6934 31.4045 76.6934 31.661V32.1556C76.6934 34.7752 76.0247 36.7629 74.6874 38.1185C73.3684 39.4741 71.4907 40.1519 69.0543 40.1519C66.6178 40.1519 64.6851 39.4741 63.2562 38.1185C61.5525 36.5064 60.7007 34.07 60.7007 30.8091V2.25864C62.6242 1.08621 64.8225 0.5 67.2956 0.5C69.787 0.5 71.6373 1.03126 72.8463 2.09377C74.0737 3.13797 74.6874 4.6035 74.6874 6.49038Z" fill="white"/>
<path d="M47.2086 40.3901C42.1342 40.3901 38.1314 38.9795 35.2004 36.1583C32.196 33.3189 30.6938 29.4352 30.6938 24.5073C30.6938 19.5611 32.2418 15.6408 35.3378 12.7464C38.1955 10.0535 41.8136 8.70701 46.1919 8.70701C50.5702 8.70701 54.0783 9.91608 56.7163 12.3342C59.3726 14.734 60.7007 17.6926 60.7007 21.2099C60.7007 24.3425 59.6107 26.7056 57.4307 28.2994C55.4156 29.8016 52.6677 30.5527 49.1871 30.5527C46.5857 30.5527 44.3874 30.0123 42.5922 28.9314C42.4456 29.0413 42.3723 29.2428 42.3723 29.536C42.3723 30.0855 43.0959 30.5893 44.5432 31.0473C45.9904 31.5419 47.6299 31.7892 49.4619 31.7892C51.3121 31.7892 52.9883 31.5602 54.4905 31.1022C56.011 30.6259 57.2292 30.0672 58.1452 29.426C58.5848 29.8107 58.9329 30.5252 59.1894 31.5694C59.4642 32.5953 59.6015 33.5387 59.6015 34.3997C59.6015 35.2424 59.5191 35.9935 59.3542 36.653C57.9253 37.862 56.4598 38.723 54.9576 39.236C52.8326 40.0054 50.2496 40.3901 47.2086 40.3901ZM46.8514 21.7869C47.7673 21.7869 48.2253 21.4389 48.2253 20.7427C48.2253 20.0832 47.7399 19.7535 46.7689 19.7535C45.798 19.7535 45.2393 20.2756 45.0927 21.3198C45.6057 21.6312 46.1919 21.7869 46.8514 21.7869Z" fill="white"/>
<path d="M28.6879 26.0553C28.6879 27.3743 28.8344 28.4368 29.1275 29.2428C29.4207 30.0489 29.9336 30.6809 30.6664 31.1389C30.6847 31.2305 30.6938 31.4045 30.6938 31.661V32.1556C30.6938 34.6837 29.9611 36.653 28.4955 38.0635C27.0483 39.4558 25.1706 40.1519 22.8624 40.1519C20.5725 40.1519 18.7131 39.5016 17.2842 38.2009C15.6171 36.7171 14.7836 34.4638 14.7836 31.4412C14.7836 30.1588 14.8386 29.0322 14.9485 28.0613C15.0767 27.072 15.1591 26.3667 15.1958 25.9454C15.2507 25.524 15.3057 25.1302 15.3607 24.7638C15.4156 24.3974 15.4431 23.857 15.4431 23.1425C15.4431 22.4281 15.3423 21.9152 15.1408 21.6037C14.9576 21.2923 14.692 21.1366 14.3439 21.1366C14.0142 21.1366 13.7211 21.2099 13.4646 21.3564L13.8218 25.8355C13.4921 27.6857 13.3272 29.6459 13.3272 31.7159C13.3272 33.786 13.7944 35.6729 14.7286 37.3766C12.9334 39.2268 10.4145 40.1519 7.17197 40.1519C5.32173 40.1519 3.7188 39.6665 2.36318 38.6956C0.787726 37.5964 0 36.14 0 34.3264V2.25864C0.879322 1.74571 1.93268 1.32436 3.16006 0.994619C4.40577 0.664873 5.66064 0.5 6.92466 0.5C9.03137 0.5 10.7717 0.912182 12.1456 1.73655C13.7028 2.70747 14.4813 4.09973 14.4813 5.91333V8.52382C12.8876 8.61541 11.3579 9.07339 9.89237 9.89776C8.62835 10.6305 7.99634 11.2992 7.99634 11.9037C7.99634 12.1052 8.06961 12.2884 8.21617 12.4533C8.36272 12.5998 8.53675 12.6914 8.73826 12.7281C9.50767 11.8304 10.5885 11.0793 11.9808 10.4748C13.3913 9.87028 15.0584 9.56801 16.9819 9.56801C18.9054 9.56801 20.6366 9.86112 22.1754 10.4473C24.1172 11.1801 25.6469 12.2976 26.7644 13.7997C28.1017 15.6317 28.7703 17.9307 28.7703 20.6969L28.6879 26.0553Z" fill="white"/>
</svg>
